PathFileType	4	(X/Y/Z)	../Python\walking\Walking05\task.trc
DataRate	CameraRate	NumFrames	NumMarkers	Units	OrigDataRate	OrigDataStartFrame	OrigNumFrames
200.000000	200.000000	7	30	mm	200.000000	529	605
Frame#	Time	C7			RBAK			CLAV			STRN			T10			RASI			RPSI			LPSI			LASI			PE01			PE02			PE03			RTH1			RTH2			RTH3			RTB1			RTB2			RTB3			RHEE			RD5M			RTOE			LTH1			LTH2			LTH3			LTB1			LTB2			LTB3			LHEE			LTOE			LD5M			
		X1	Y1	Z1	X2	Y2	Z2	X3	Y3	Z3	X4	Y4	Z4	X5	Y5	Z5	X6	Y6	Z6	X7	Y7	Z7	X8	Y8	Z8	X9	Y9	Z9	X10	Y10	Z10	X11	Y11	Z11	X12	Y12	Z12	X13	Y13	Z13	X14	Y14	Z14	X15	Y15	Z15	X16	Y16	Z16	X17	Y17	Z17	X18	Y18	Z18	X19	Y19	Z19	X20	Y20	Z20	X21	Y21	Z21	X22	Y22	Z22	X23	Y23	Z23	X24	Y24	Z24	X25	Y25	Z25	X26	Y26	Z26	X27	Y27	Z27	X28	Y28	Z28	X29	Y29	Z29	X30	Y30	Z30	

530	2.645	2343.227050781251	1518.570922851563	238.1754302978517	2327.581542968751	1429.771606445313	405.0496520996096	2459.918945312501	1429.14501953125	242.8814239501954	2519.166259765626	1237.701293945313	244.4427490234376	2294.548095703126	1259.58203125	240.3206634521486	2511.969970703126	1039.7509765625	393.5734558105471	2341.453857421876	1076.554931640625	316.4378356933595	2332.814697265626	1063.59814453125	217.8002929687501	2495.935302734376	1000.5947265625	118.4866256713868	2345.032958984376	1116.417236328125	259.777801513672	2334.575195312501	1061.521850585938	295.5285949707032	2328.414062500001	1054.278076171875	245.2519531250001	2482.200927734376	780.1253051757817	438.1779479980471	2425.959960937501	753.5056762695315	440.4624938964846	2446.379882812501	710.359558105469	423.4539489746096	2456.217285156251	366.5342407226564	373.9561767578126	2416.125244140626	320.8330078125001	376.4731750488282	2450.589599609376	288.339080810547	361.3213500976564	2365.264892578126	22.32454109191895	274.1712646484376	2521.852050781251	12.43288326263428	358.4194946289064	2581.938476562501	26.51168251037599	315.1594238281251	2436.455810546876	688.3482055664065	109.7044830322266	2422.112304687501	647.7730712890627	135.7081909179688	2471.122070312501	617.6104736328127	113.4075927734376	2372.759277343751	418.4182739257815	116.4016494750977	2324.818359375001	415.9862365722659	129.4023132324219	2326.054199218751	354.5823364257814	119.997787475586	2082.120605468751	268.8746948242189	179.3482208251954	2169.649902343751	84.71154785156253	157.5083312988282	2139.196533203126	113.5476760864258	117.7544097900391	
531	2.65	2349.646484375001	1519.094604492188	238.491668701172	2334.319824218751	1430.550048828125	405.6952209472659	2466.142089843751	1429.441772460938	243.009735107422	2525.031005859376	1237.878173828125	244.7674407958986	2300.455078125001	1260.198608398438	241.2411651611329	2517.375488281251	1039.582885742188	394.4040222167971	2347.066162109376	1076.71435546875	316.5932006835939	2338.569824218751	1064.22412109375	217.891571044922	2501.885498046876	1001.6103515625	119.1794052124024	2350.795410156251	1116.817749023438	260.1641540527345	2340.226074218751	1061.771850585938	295.6387939453126	2334.098388671876	1054.783203125	245.322967529297	2486.699218750001	779.7039184570317	438.031921386719	2430.236328125001	753.410095214844	440.2809143066409	2450.531250000001	710.176208496094	423.2426452636721	2458.435791015626	366.4061279296876	373.5285034179689	2418.033691406251	320.9564819335939	376.0049133300782	2452.282714843751	288.2344970703126	360.8912963867189	2365.356689453126	22.49786186218262	273.9903564453126	2521.879638671876	12.46126651763917	358.3714599609376	2582.159667968751	26.42049789428712	315.1325683593751	2445.684326171876	689.2581176757815	109.5472869873047	2431.907226562501	648.3549804687502	135.3568267822266	2481.552734375001	619.1104125976565	113.2671127319337	2385.887939453126	419.7298889160159	117.3183670043946	2338.056396484376	416.7600708007815	130.5956573486329	2339.752685546876	355.470916748047	120.4593887329102	2096.357421875001	266.1907348632814	180.5591125488282	2188.727539062501	84.50070953369143	157.0207977294922	2157.315917968751	112.8597793579102	117.657569885254	
532	2.655	2356.051757812501	1519.589111328125	238.8083496093751	2341.030517578126	1431.2998046875	406.3351135253909	2472.352050781251	1429.713745117188	243.1487731933595	2530.887939453126	1238.043090820313	245.1137237548829	2306.359130859376	1260.788208007813	242.1430053710939	2522.756103515626	1039.408081054688	395.2382507324221	2352.665283203126	1076.84716796875	316.695281982422	2344.327880859376	1064.832885742188	217.9263000488282	2507.855957031251	1002.611145019532	119.902946472168	2356.554443359376	1117.197265625	260.5037536621095	2345.869873046876	1061.996704101563	295.6941223144532	2339.782226562501	1055.26953125	245.3383789062501	2491.197753906251	779.2727050781255	437.9053955078127	2434.507568359376	753.3106689453127	440.1054687500002	2454.667236328126	709.9893798828127	423.0527954101565	2460.662353515626	366.2702636718751	373.1188049316407	2419.955566406251	321.0767517089845	375.5563049316407	2453.987060546876	288.1282653808595	360.4790039062501	2365.445556640626	22.6755485534668	273.8174133300782	2521.907714843751	12.48880100250245	358.3277893066407	2582.370117187501	26.33496093750001	315.1156616210939	2454.957519531251	690.2283935546877	109.3476333618165	2441.709960937501	649.0046997070315	134.9369812011719	2491.986328125001	620.6779785156252	113.106918334961	2398.953125000001	420.9328308105471	118.2202301025391	2351.235839843751	417.3831787109377	131.7498321533204	2353.454345703126	356.2140502929689	120.9199447631837	2110.779541015626	263.1555480957032	181.7639923095704	2207.933105468751	84.12615203857425	156.6429138183594	2175.558593750001	111.937355041504	117.6546020507813	
533	2.66	2362.444091796876	1520.053466796875	239.1251525878907	2347.715332031251	1432.019165039063	406.9678344726565	2478.550537109376	1429.960693359375	243.2977142333986	2536.739257812501	1238.195556640625	245.4789123535157	2312.262207031251	1261.35009765625	243.0240173339845	2528.118164062501	1039.223510742188	396.0679626464846	2358.255371093751	1076.954833984375	316.7495727539064	2350.089111328126	1065.421508789063	217.9109802246095	2513.842529296876	1003.593017578125	120.6484375000001	2362.311523437501	1117.554931640625	260.7998352050782	2351.509765625001	1062.19677734375	295.7000732421876	2345.466308593751	1055.7353515625	245.3041381835939	2495.690429687501	778.8320312500005	437.7980957031252	2438.772216796876	753.2052001953127	439.9364929199221	2458.785156250001	709.797546386719	422.8833618164065	2462.893066406251	366.1268310546876	372.7243957519532	2421.889404296876	321.1933593750001	375.1264648437501	2455.700927734376	288.0207824707032	360.081512451172	2365.531738281251	22.85754013061524	273.6513977050782	2521.936279296876	12.51622104644776	358.2872009277345	2582.570556640626	26.25468063354494	315.1065368652345	2464.277587890626	691.2554321289065	109.1053771972657	2451.522460937501	649.719665527344	134.4505157470704	2502.421630859376	622.3071899414065	112.9287338256837	2411.949462890626	422.0175476074221	119.099349975586	2364.352294921876	417.8482666015627	132.8559112548829	2367.155517578126	356.8047180175782	121.3803329467774	2125.384277343751	259.7738342285157	182.9547271728516	2227.270996093751	83.58905792236331	156.375473022461	2193.940673828126	110.7814254760743	117.7412567138672	
534	2.665	2368.824462890626	1520.486694335938	239.4417266845704	2354.375976562501	1432.706787109375	407.591979980469	2484.738769531251	1430.181884765625	243.4556274414064	2542.586181640626	1238.3349609375	245.8601531982423	2318.166015625001	1261.88330078125	243.8824310302736	2533.467529296876	1039.02587890625	396.8853149414065	2363.840332031251	1077.038818359375	316.7619934082032	2355.854736328126	1065.987426757813	217.8524932861329	2519.842041015626	1004.551940917969	121.4067993164063	2368.068115234376	1117.889770507813	261.056121826172	2357.147949218751	1062.372680664063	295.6625366210939	2351.152587890626	1056.179443359375	245.2266082763673	2500.171386718751	778.3820190429692	437.7089843750002	2443.029296875001	753.0916748046877	439.7741699218752	2462.882324218751	709.5989990234377	422.7324829101565	2465.124267578126	365.9761657714845	372.342498779297	2423.832031250001	321.3060302734376	374.714080810547	2457.422607421876	287.9123535156251	359.6958618164064	2365.615234375001	23.0438632965088	273.4910583496095	2521.965820312501	12.54425430297852	358.2484436035157	2582.760986328126	26.17930603027345	315.1028442382814	2473.644287109376	692.3350219726565	108.8204956054688	2461.344726562501	650.4964599609377	133.8993377685547	2512.856201171876	623.9918212890627	112.7343521118165	2424.871093750001	422.9764404296877	119.9482574462891	2377.401611328126	418.1494140625002	133.9062805175782	2380.852783203126	357.2375488281251	121.8413314819337	2140.170166015626	256.0518798828126	184.1236114501954	2246.748291015626	82.89123535156253	156.218734741211	2212.478515625001	109.3937454223633	117.9135131835938	
535	2.67	2375.194091796876	1520.887939453125	239.7576904296876	2361.013427734376	1433.361083984375	408.206237792969	2490.918457031251	1430.376831054688	243.6214904785157	2548.430664062501	1238.460327148438	246.2544097900392	2324.071777343751	1262.387084960938	244.7167205810548	2538.810302734376	1038.8115234375	397.6826477050784	2369.423828125001	1077.1005859375	316.7387084960939	2361.625000000001	1066.528076171875	217.7579193115236	2525.851074218751	1005.483825683594	122.1689376831055	2373.825927734376	1118.201049804688	261.2765502929689	2362.786865234376	1062.525024414063	295.587615966797	2356.842285156251	1056.600341796875	245.1123504638673	2504.635009765626	777.9228515625005	437.6365661621096	2447.277832031251	752.9683227539065	439.6182861328127	2466.957763671876	709.3919677734377	422.5977783203127	2467.352050781251	365.8186035156251	371.9706115722657	2425.779541015626	321.414520263672	374.3176269531251	2459.148925781251	287.8032836914064	359.319305419922	2365.696044921876	23.23460006713868	273.3352966308595	2521.996826171876	12.57355022430421	358.2102966308595	2582.942382812501	26.10852432250978	315.1023864746095	2483.054687500001	693.4625244140627	108.4931869506837	2471.175292968751	651.3310546875002	133.2854614257813	2523.285888671876	625.7254028320315	112.5256271362305	2437.713623046876	423.803649902344	120.7599716186524	2390.380615234376	418.2820434570315	134.8944244384766	2394.544677734376	357.508758544922	122.3035354614258	2155.137939453126	251.9976959228517	185.2641296386719	2266.371337890626	82.03529357910159	156.1718902587891	2231.185302734376	107.7772064208985	118.1675109863282	
536	2.675	2381.553955078126	1521.25634765625	240.0726165771486	2367.630371093751	1433.980712890625	408.8094787597659	2497.090820312501	1430.544677734375	243.7942047119142	2554.274169921876	1238.570190429688	246.6585845947267	2329.980957031251	1262.8603515625	245.5257263183595	2544.151855468751	1038.577026367188	398.4529724121096	2375.009765625001	1077.141723632813	316.6859436035157	2367.400634765626	1067.041381835938	217.6343688964845	2531.866455078126	1006.384887695313	122.9259185791016	2379.586181640626	1118.488037109375	261.4652099609376	2368.428710937501	1062.654296875	295.4815673828126	2362.537109375001	1056.996704101563	244.9679412841798	2509.076660156251	777.4544067382817	437.5789489746096	2451.517089843751	752.8336181640627	439.4684753417971	2471.010009765626	709.1745605468752	422.4765625000002	2469.571777343751	365.6546020507814	371.6067199707032	2427.728271484376	321.5187377929689	373.9356079101564	2460.876464843751	287.6937255859376	358.9497375488282	2365.774169921876	23.42984771728516	273.1831359863282	2522.029541015626	12.6046257019043	358.1717529296876	2583.114990234376	26.04207038879396	315.1029663085939	2492.504394531251	694.6326293945315	108.1239624023438	2481.010986328126	652.2186279296877	132.6111907958985	2533.705566406251	627.5012207031252	112.3043441772462	2450.473388671876	424.4946594238284	121.5279769897462	2403.286865234376	418.2425537109377	135.8147888183594	2408.229248046876	357.6158447265626	122.7672271728516	2170.290039062501	247.6207275390626	186.3716278076172	2286.145751953126	81.0248947143555	156.2328491210938	2250.071289062501	105.9362258911133	118.4992675781251	
